<?xml version="1.0" encoding="utf-8"?>
<!-- Generator: Adobe Illustrator 22.1.0, SVG Export Plug-In . SVG Version: 6.00 Build 0)  -->
<svg version="1.1" id="Ebene_1" xmlns="http://www.w3.org/2000/svg" xmlns:xlink="http://www.w3.org/1999/xlink" x="0px" y="0px"
	 viewBox="0 0 120.2 89.2" style="enable-background:new 0 0 120.2 89.2;" xml:space="preserve">
<style type="text/css">
	.st0{enable-background:new    ;}
	.st1{fill:#222221;}
</style>
<title>ConniLauscher_Signatur</title>
<g class="st0">
	<path class="st1" d="M108,62.3h1.1v1.5c0.3-1,1.3-1.6,2.2-1.6c0.4,0,1,0.1,1.4,0.4l-0.4,0.9c-0.3-0.3-0.6-0.3-1-0.3
		c-1.4,0-2.2,1.6-2.2,3.7V70H108V62.3z"/>
</g>
<g class="st0">
	<path class="st1" d="M105.4,66.5h-5.5c0.1,1.4,0.7,2.6,2.5,2.6c0.8,0,1.5-0.2,2.1-0.8l0.7,0.6c-0.8,0.9-1.8,1.2-2.8,1.2
		c-2.5,0-3.6-1.8-3.6-3.9c0-2.1,1.2-4,3.4-4c2.4,0,3.2,1.9,3.2,3.6C105.4,66.1,105.4,66.4,105.4,66.5z M99.9,65.6h4.5
		c0-1.2-0.4-2.4-2.2-2.4C100.5,63.2,100,64.6,99.9,65.6z"/>
</g>
<g class="st0">
	<path class="st1" d="M96.6,65.3V70h-1.1v-4.7c0-1.1-0.3-2.1-1.7-2.1c-1.3,0-2.3,0.9-2.3,2.9v4h-1.1v-11h1.1v4.4
		c0.7-1,1.5-1.4,2.4-1.4C95.8,62.2,96.6,63.6,96.6,65.3z"/>
</g>
<g class="st0">
	<path class="st1" d="M81.5,66.2c0-2.2,1.3-4,3.3-4c1.5,0,2.6,1,3,2.4L86.9,65c-0.3-1.1-0.9-1.9-2-1.9c-1.6,0-2.2,1.5-2.2,3
		c0,1.6,0.6,3,2.2,3c1.2,0,1.8-0.8,2-1.9l0.9,0.4c-0.4,1.4-1.5,2.4-3,2.4C82.8,70.2,81.5,68.4,81.5,66.2z"/>
</g>
<g class="st0">
	<path class="st1" d="M74.2,68.3l0.9-0.5c0.2,0.8,1,1.4,1.9,1.4c0.8,0,1.6-0.4,1.6-1.3c0-0.9-0.8-1.1-1.7-1.4
		c-1.1-0.3-2.5-0.5-2.5-2.2c0-1.3,1.1-2.2,2.4-2.2c1.3,0,2.2,0.8,2.6,1.6l-0.9,0.5c-0.3-0.6-0.8-1-1.7-1c-0.7,0-1.4,0.4-1.4,1.2
		c0,0.7,0.8,0.9,1.7,1.1c1.2,0.3,2.5,0.7,2.5,2.4c0,1.5-1.3,2.4-2.7,2.4C75.7,70.2,74.6,69.3,74.2,68.3z"/>
</g>
<g class="st0">
	<path class="st1" d="M71.7,62.3V70h-1.1v-1.2c-0.7,1-1.5,1.3-2.4,1.3c-2,0-2.7-1.5-2.7-3.1v-4.8h1.1V67c0,1.1,0.3,2.1,1.7,2.1
		c1.3,0,2.3-0.9,2.3-2.9v-4H71.7z"/>
</g>
<g class="st0">
	<path class="st1" d="M63,65.3V70h-1l-0.1-1.4c-0.6,1.2-1.6,1.6-2.6,1.6c-1.4,0-2.6-0.8-2.6-2.3c0-1.4,1.2-2.3,3.3-2.3h1.9v-0.4
		c0-1.3-0.5-2.1-1.8-2.1c-1.1,0-1.8,0.6-2.2,1.1l-0.8-0.6c0.7-0.9,1.5-1.5,2.9-1.5C62,62.2,63,63.4,63,65.3z M61.9,66.5h-1.8
		c-1.4,0-2.2,0.4-2.2,1.4s0.8,1.2,1.6,1.2C61,69.2,61.8,68.2,61.9,66.5z"/>
</g>
<g class="st0">
	<path class="st1" d="M49.1,59.1h1.2V69H55V70h-5.9V59.1z"/>
</g>
<g class="st0">
	<path class="st1" d="M39.6,59.1h1.5v1.5h-1.5V59.1z M39.8,62.3h1.1V70h-1.1V62.3z"/>
</g>
<g class="st0">
	<path class="st1" d="M37,65.3V70h-1.1v-4.7c0-1.1-0.3-2.1-1.7-2.1c-1.3,0-2.3,0.9-2.3,2.9v4h-1.1v-7.8h1.1v1.2
		c0.7-1,1.5-1.3,2.4-1.3C36.3,62.2,37,63.6,37,65.3z"/>
</g>
<g class="st0">
	<path class="st1" d="M28,65.3V70h-1.1v-4.7c0-1.1-0.3-2.1-1.7-2.1c-1.3,0-2.3,0.9-2.3,2.9v4h-1.1v-7.8h1.1v1.2
		c0.7-1,1.5-1.3,2.4-1.3C27.2,62.2,28,63.6,28,65.3z"/>
</g>
<g class="st0">
	<path class="st1" d="M11.9,66.2c0-2.4,1.4-4,3.5-4c2.1,0,3.5,1.6,3.5,4c0,2.4-1.5,4-3.5,4C13.3,70.2,11.9,68.6,11.9,66.2z
		 M17.9,66.2c0-1.6-0.7-3-2.4-3c-1.8,0-2.4,1.4-2.4,3s0.7,3,2.4,3C17.2,69.2,17.9,67.8,17.9,66.2z"/>
</g>
<g class="st0">
	<path class="st1" d="M0.7,64.6c0-3.1,1.5-5.7,4.8-5.7c2,0,3.6,1,4.4,3l-1,0.4C8.3,60.6,7,60,5.6,60c-2.7,0-3.8,2.1-3.8,4.5
		c0,2.5,1.1,4.6,3.8,4.6c1.5,0,2.7-0.6,3.3-2.3l1,0.4c-0.7,2-2.3,3-4.4,3C2.2,70.2,0.7,67.6,0.7,64.6z"/>
</g>
<g>
	<g>
		<g class="st0">
			<path class="st1" d="M114.8,79.6h1.1v1.5c0.3-1,1.3-1.6,2.2-1.6c0.4,0,1,0.1,1.3,0.4l-0.4,0.9c-0.3-0.3-0.6-0.3-1-0.3
				c-1.4,0-2.2,1.6-2.2,3.7v3.2h-1.1V79.6z"/>
		</g>
		<g class="st0">
			<path class="st1" d="M111.5,79.6v7.8h-1.1v-1.2c-0.7,1-1.5,1.3-2.4,1.3c-2,0-2.7-1.5-2.7-3.1v-4.8h1.1v4.7c0,1.1,0.3,2.1,1.7,2.1
				c1.3,0,2.3-0.9,2.3-2.9v-4H111.5z"/>
		</g>
		<g class="st0">
			<path class="st1" d="M101.4,80.6v4.9c0,0.4,0.1,0.7,0.3,0.8c0.1,0.2,0.4,0.2,0.7,0.2c0.5,0,0.9-0.2,0.9-0.1v1c0,0-0.5,0.1-1,0.1
				c-0.6,0-1.1-0.2-1.4-0.5c-0.4-0.4-0.6-1-0.6-1.7v-4.8h-1.2v-1h1.2v-1.8l1.1-0.8v2.6h2v1H101.4z"/>
		</g>
		<g class="st0">
			<path class="st1" d="M94.3,83.2l-1.7,1.9v2.3h-1.1v-11h1.1v7.5l3.5-4.3h1.4l-2.6,2.9l3.1,4.9h-1.3L94.3,83.2z"/>
		</g>
		<g class="st0">
			<path class="st1" d="M88.9,83.9h-5.5c0.1,1.4,0.7,2.6,2.5,2.6c0.8,0,1.5-0.2,2.1-0.8l0.7,0.6c-0.8,0.9-1.8,1.2-2.8,1.2
				c-2.5,0-3.6-1.8-3.6-3.9c0-2.1,1.2-4,3.4-4c2.4,0,3.2,1.9,3.2,3.6C89,83.4,88.9,83.7,88.9,83.9z M83.4,83h4.5
				c0-1.2-0.4-2.4-2.2-2.4C84.1,80.5,83.5,82,83.4,83z"/>
		</g>
		<g class="st0">
			<path class="st1" d="M79,80.6v4.9c0,0.4,0.1,0.7,0.3,0.8c0.1,0.2,0.4,0.2,0.7,0.2c0.5,0,0.9-0.2,0.9-0.1v1c0,0-0.5,0.1-1,0.1
				c-0.6,0-1.1-0.2-1.4-0.5c-0.4-0.4-0.6-1-0.6-1.7v-4.8h-1.2v-1h1.2v-1.8L79,77v2.6h2v1H79z"/>
		</g>
		<g class="st0">
			<path class="st1" d="M73.3,76.4h1.5v1.5h-1.5V76.4z M73.5,79.6h1.1v7.8h-1.1V79.6z"/>
		</g>
		<g class="st0">
			<path class="st1" d="M70.7,82.6v4.8h-1.1v-4.7c0-1.1-0.3-2.1-1.7-2.1c-1.3,0-2.3,0.9-2.3,2.9v4h-1.1v-11h1.1v4.4
				c0.7-1,1.5-1.4,2.4-1.4C70,79.5,70.7,81,70.7,82.6z"/>
		</g>
		<g class="st0">
			<path class="st1" d="M55.7,83.5c0-2.2,1.3-4,3.3-4c1.5,0,2.6,1,3,2.4L61,82.4c-0.3-1.1-0.9-1.9-2-1.9c-1.6,0-2.2,1.5-2.2,3
				c0,1.6,0.6,3,2.2,3c1.2,0,1.8-0.8,2-1.9l0.9,0.4c-0.4,1.4-1.5,2.4-3,2.4C57,87.5,55.7,85.7,55.7,83.5z"/>
		</g>
		<g class="st0">
			<path class="st1" d="M50.4,79.6h1.1v1.5c0.3-1,1.3-1.6,2.2-1.6c0.4,0,1,0.1,1.4,0.4l-0.4,0.9c-0.3-0.3-0.6-0.3-1-0.3
				c-1.4,0-2.2,1.6-2.2,3.7v3.2h-1.1V79.6z"/>
		</g>
		<g class="st0">
			<path class="st1" d="M47.5,82.6v4.8h-1L46.4,86c-0.6,1.2-1.6,1.6-2.6,1.6c-1.4,0-2.6-0.8-2.6-2.3c0-1.4,1.2-2.3,3.3-2.3h1.9v-0.4
				c0-1.3-0.5-2.1-1.8-2.1c-1.1,0-1.8,0.6-2.2,1.1L41.6,81c0.7-0.9,1.5-1.5,2.9-1.5C46.4,79.5,47.5,80.7,47.5,82.6z M46.4,83.9h-1.8
				c-1.4,0-2.2,0.4-2.2,1.4s0.8,1.2,1.6,1.2C45.5,86.5,46.3,85.5,46.4,83.9z"/>
		</g>
		<g class="st0">
			<path class="st1" d="M39.1,82.6v4.8H38v-4.7c0-1.1-0.3-2.1-1.7-2.1c-1.3,0-2.3,0.9-2.3,2.9v4h-1.1v-7.8H34v1.2
				c0.7-1,1.5-1.3,2.4-1.3C38.3,79.5,39.1,81,39.1,82.6z"/>
		</g>
		<g class="st0">
			<path class="st1" d="M30.4,83.9h-5.5c0.1,1.4,0.7,2.6,2.5,2.6c0.8,0,1.5-0.2,2.1-0.8l0.7,0.6c-0.8,0.9-1.8,1.2-2.8,1.2
				c-2.5,0-3.6-1.8-3.6-3.9c0-2.1,1.2-4,3.4-4c2.4,0,3.2,1.9,3.2,3.6C30.5,83.4,30.4,83.7,30.4,83.9z M24.9,83h4.5
				c0-1.2-0.4-2.4-2.2-2.4C25.6,80.5,25,82,24.9,83z"/>
		</g>
		<g class="st0">
			<path class="st1" d="M21.6,82.6v4.8h-1.1v-4.7c0-1.1-0.3-2.1-1.7-2.1c-1.3,0-2.3,0.9-2.3,2.9v4h-1.1v-7.8h1.1v1.2
				c0.7-1,1.5-1.3,2.4-1.3C20.8,79.5,21.6,81,21.6,82.6z"/>
		</g>
		<g class="st0">
			<path class="st1" d="M12.5,82.6v4.8h-1.1v-4.7c0-1.1-0.3-2.1-1.7-2.1c-1.3,0-2.3,0.9-2.3,2.9v4H6.3v-7.8h1.1v1.2
				c0.7-1,1.5-1.3,2.4-1.3C11.8,79.5,12.5,81,12.5,82.6z"/>
		</g>
		<g class="st0">
			<path class="st1" d="M2,76.4h1.2v11H2V76.4z"/>
		</g>
	</g>
</g>
<rect x="112.8" y="0" class="st1" width="6.5" height="37.1"/>
<polygon class="st1" points="55.5,0 55.5,21.9 61.6,21.9 61.6,6.5 91.4,6.5 91.4,0 "/>
<g>
	<g>
		<path class="st1" d="M17.2,37.1c6.9,0.2,13.3-3.9,15.8-10.4l-6-2.4c-1.9,4.8-5.1,6.7-9.7,6.7c-7.7,0-11-5.5-11-12.6
			c0-6.7,3.3-12.1,10.9-12.1c4.7,0,8.4,1.8,9.7,6.6l6-2.4C30.4,3.9,24.1-0.2,17.1,0C5.3,0-0.2,8.7-0.2,18.6S5.4,37.1,17.2,37.1"/>
	</g>
</g>
</svg>
