<svg id="Ebene_1" data-name="Ebene 1" xmlns="http://www.w3.org/2000/svg" xmlns:xlink="http://www.w3.org/1999/xlink" width="42.39mm" height="31.46mm" viewBox="0 0 120.17 89.17"><defs><clipPath id="clip-path"><rect x="-0.21" width="119.55" height="97.84" fill="none"/></clipPath></defs><title>ConniLauscher_Signatur</title><text transform="translate(106.42 70.04)" font-size="15.89" fill="#222221" font-family="HKGrotesk-Light, HK Grotesk">r</text><text transform="translate(97.99 70.04)" font-size="15.89" fill="#222221" font-family="HKGrotesk-Light, HK Grotesk">e</text><text transform="translate(88.79 70.04)" font-size="15.89" fill="#222221" font-family="HKGrotesk-Light, HK Grotesk">h</text><text transform="translate(80.68 70.04)" font-size="15.89" fill="#222221" font-family="HKGrotesk-Light, HK Grotesk">c</text><text transform="translate(73.57 70.04)" font-size="15.89" fill="#222221" font-family="HKGrotesk-Light, HK Grotesk">s</text><text transform="translate(64.36 70.04)" font-size="15.89" fill="#222221" font-family="HKGrotesk-Light, HK Grotesk">u</text><text transform="translate(55.95 70.04)" font-size="15.89" fill="#222221" font-family="HKGrotesk-Light, HK Grotesk">a</text><text transform="translate(47.5 70.04)" font-size="15.89" fill="#222221" font-family="HKGrotesk-Light, HK Grotesk">L</text><text transform="translate(42.77 70.04)" font-size="15.89" fill="#222221" font-family="HKGrotesk-Light, HK Grotesk"> </text><text transform="translate(38.23 70.04)" font-size="15.89" fill="#222221" font-family="HKGrotesk-Light, HK Grotesk">i</text><text transform="translate(29.24 70.04)" font-size="15.89" fill="#222221" font-family="HKGrotesk-Light, HK Grotesk">n</text><text transform="translate(20.21 70.04)" font-size="15.89" fill="#222221" font-family="HKGrotesk-Light, HK Grotesk">n</text><text transform="translate(11.06 70.04)" font-size="15.89" fill="#222221" font-family="HKGrotesk-Light, HK Grotesk">o</text><text transform="translate(-0.42 70.04)" font-size="15.89" fill="#222221" font-family="HKGrotesk-Light, HK Grotesk">C</text><text transform="translate(0.9 70.04)" font-size="15.89" fill="#222221" font-family="HKGrotesk-Light, HK Grotesk"> </text><g clip-path="url(#clip-path)"><text transform="translate(113.24 87.38)" font-size="15.89" fill="#222221" font-family="HKGrotesk-Light, HK Grotesk">r</text><text transform="translate(104.09 87.38)" font-size="15.89" fill="#222221" font-family="HKGrotesk-Light, HK Grotesk">u</text><text transform="translate(98.65 87.38)" font-size="15.89" fill="#222221" font-family="HKGrotesk-Light, HK Grotesk">t</text><text transform="translate(89.82 87.38)" font-size="15.89" fill="#222221" font-family="HKGrotesk-Light, HK Grotesk">k</text><text transform="translate(81.5 87.38)" font-size="15.89" fill="#222221" font-family="HKGrotesk-Light, HK Grotesk">e</text><text transform="translate(76.23 87.38)" font-size="15.89" fill="#222221" font-family="HKGrotesk-Light, HK Grotesk">t</text><text transform="translate(71.97 87.38)" font-size="15.89" fill="#222221" font-family="HKGrotesk-Light, HK Grotesk">i</text><text transform="translate(62.97 87.38)" font-size="15.89" fill="#222221" font-family="HKGrotesk-Light, HK Grotesk">h</text><text transform="translate(54.86 87.38)" font-size="15.89" fill="#222221" font-family="HKGrotesk-Light, HK Grotesk">c</text><text transform="translate(48.91 87.38)" font-size="15.89" fill="#222221" font-family="HKGrotesk-Light, HK Grotesk">r</text><text transform="translate(40.43 87.38)" font-size="15.89" fill="#222221" font-family="HKGrotesk-Light, HK Grotesk">a</text><text transform="translate(31.33 87.38)" font-size="15.89" fill="#222221" font-family="HKGrotesk-Light, HK Grotesk">n</text><text transform="translate(23 87.38)" font-size="15.89" fill="#222221" font-family="HKGrotesk-Light, HK Grotesk">e</text><text transform="translate(13.81 87.38)" font-size="15.89" fill="#222221" font-family="HKGrotesk-Light, HK Grotesk">n</text><text transform="translate(4.78 87.38)" font-size="15.89" fill="#222221" font-family="HKGrotesk-Light, HK Grotesk">n</text><text transform="translate(0.53 87.38)" font-size="15.89" fill="#222221" font-family="HKGrotesk-Light, HK Grotesk">I</text><text transform="translate(0.9 87.38)" font-size="15.89" fill="#222221" font-family="HKGrotesk-Light, HK Grotesk"> </text></g><rect x="112.79" y="0.01" width="6.47" height="37.06" fill="#222221"/><polygon points="55.46 0.01 55.46 21.86 61.56 21.86 61.56 6.48 91.44 6.48 91.44 0.01 55.46 0.01" fill="#222221"/><g clip-path="url(#clip-path)"><path d="M17.21,37.08A16.35,16.35,0,0,0,33,26.7l-6-2.45c-1.93,4.85-5.11,6.67-9.75,6.67-7.72,0-11-5.47-11-12.62,0-6.67,3.29-12.15,10.9-12.15,4.7,0,8.4,1.83,9.75,6.57l6-2.39A16.37,16.37,0,0,0,17.15,0C5.32,0-.21,8.71-.21,18.56S5.37,37.08,17.21,37.08" fill="#222221"/></g></svg>